<?xml version="1.0" encoding="utf-8"?>
<!-- Generator: Adobe Illustrator 22.0.1, SVG Export Plug-In . SVG Version: 6.00 Build 0)  -->
<svg version="1.1" id="Layer_1" xmlns="http://www.w3.org/2000/svg" xmlns:xlink="http://www.w3.org/1999/xlink" x="0px" y="0px"
	 viewBox="0 0 200 200" style="enable-background:new 0 0 200 200;" xml:space="preserve">
<style type="text/css">
	.st0{fill:#FFFFFF;}
	.st1{display:none;}
	.st2{display:inline;}
</style>
<g id="Layer_1_1_">
	<g>
		<path class="st0" d="M97.5,16c46.6,0,84.5,37.9,84.5,84.5S144.1,185,97.5,185S13,147.1,13,100.5S50.9,16,97.5,16 M97.5,10
			C47.5,10,7,50.5,7,100.5S47.5,191,97.5,191s90.5-40.5,90.5-90.5S147.5,10,97.5,10L97.5,10z"/>
	</g>
</g>
<g id="facebook" class="st1">
	<path id="f" class="st2" d="M102.7,160.1v-53.3h18l2.7-20.9h-20.7V72.6c0-6,1.7-10.1,10.3-10.1h11V43.8c-1.9-0.3-8.4-0.8-16.1-0.8
		C92,43,81.2,52.7,81.2,70.5v15.4H63.3v20.9h17.9v53.3H102.7z"/>
</g>
<g id="instagram">
	<g>
		<path class="st0" d="M98,68c10.4,0,11.6,0,15.8,0.3c3.8,0.2,5.8,0.8,7.3,1.3c1.9,0.7,3.1,1.6,4.5,2.9c1.3,1.3,2.2,2.7,2.9,4.5
			c0.5,1.3,1.2,3.5,1.3,7.3c0.2,4.1,0.3,5.3,0.3,15.8s0,11.6-0.3,15.8c-0.2,3.8-0.8,5.8-1.3,7.3c-0.7,1.9-1.6,3.1-2.9,4.5
			c-1.3,1.3-2.7,2.2-4.5,2.9c-1.3,0.5-3.5,1.2-7.3,1.3c-4.1,0.2-5.3,0.3-15.8,0.3s-11.6,0-15.8-0.3c-3.8-0.2-5.8-0.8-7.3-1.3
			c-1.9-0.7-3.1-1.6-4.5-2.9c-1.3-1.3-2.2-2.7-2.9-4.5c-0.5-1.3-1.2-3.5-1.3-7.3c-0.2-4.1-0.3-5.3-0.3-15.8s0-11.6,0.3-15.8
			c0.2-3.8,0.8-5.8,1.3-7.3c0.7-1.9,1.6-3.1,2.9-4.5c1.3-1.3,2.7-2.2,4.5-2.9c1.3-0.5,3.5-1.2,7.3-1.3C86.3,68.1,87.5,68,98,68
			 M98,61c-10.5,0-11.9,0.1-16,0.3c-4.2,0.2-7,0.9-9.5,1.8c-2.6,1-4.7,2.3-6.9,4.5c-2.1,2.1-3.5,4.3-4.5,6.9c-1,2.5-1.6,5.3-1.8,9.5
			C59.1,88,59,89.4,59,100c0,10.5,0.1,11.9,0.3,16c0.2,4.2,0.9,7,1.8,9.5c1,2.6,2.3,4.7,4.5,6.9c2.1,2.1,4.3,3.5,6.9,4.5
			c2.5,1,5.3,1.6,9.5,1.8c4.2,0.2,5.5,0.3,16,0.3s11.9-0.1,16-0.3c4.2-0.2,7-0.9,9.5-1.8c2.6-1,4.7-2.3,6.9-4.5
			c2.2-2.2,3.5-4.3,4.5-6.9c1-2.5,1.6-5.3,1.8-9.5c0.2-4.2,0.3-5.5,0.3-16s-0.1-11.9-0.3-16c-0.2-4.2-0.9-7-1.8-9.5
			c-1-2.6-2.3-4.7-4.5-6.9c-2.1-2.1-4.3-3.5-6.9-4.5c-2.5-1-5.3-1.6-9.5-1.8C109.9,61.1,108.5,61,98,61L98,61z"/>
		<path class="st0" d="M98,80c-11.1,0-20,9-20,20s9,20,20,20s20-9,20-20S109,80,98,80z M98,112.9c-7.2,0-13-5.8-13-13S90.8,87,98,87
			s13,5.8,13,13S105.2,112.9,98,112.9z"/>
		<circle class="st0" cx="118.7" cy="79.2" r="4.7"/>
	</g>
</g>
</svg>
