<?xml version="1.0" encoding="utf-8"?>
<!-- Generator: Adobe Illustrator 22.0.1, SVG Export Plug-In . SVG Version: 6.00 Build 0)  -->
<svg version="1.1" id="Layer_1" xmlns="http://www.w3.org/2000/svg" xmlns:xlink="http://www.w3.org/1999/xlink" x="0px" y="0px"
	 viewBox="0 0 200 200" style="enable-background:new 0 0 200 200;" xml:space="preserve">
<style type="text/css">
	.st0{fill:#FFFFFF;}
	.st1{display:none;}
	.st2{display:inline;}
</style>
<g id="Layer_1_1_">
	<g>
		<path class="st0" d="M97.5,16c46.6,0,84.5,37.9,84.5,84.5S144.1,185,97.5,185S13,147.1,13,100.5S50.9,16,97.5,16 M97.5,10
			C47.5,10,7,50.5,7,100.5S47.5,191,97.5,191s90.5-40.5,90.5-90.5S147.5,10,97.5,10L97.5,10z"/>
	</g>
</g>
<g id="facebook">
	<path id="f" class="st0" d="M101.2,150.6v-44.6h15.1l2.3-17.5h-17.3V77.3c0-5,1.4-8.5,8.6-8.5h9.2V53.2c-1.6-0.3-7-0.7-13.5-0.7
		c-13.3,0-22.3,8.1-22.3,23v12.9h-15v17.5h15v44.6H101.2z"/>
</g>
<g id="instagram" class="st1">
	<g class="st2">
		<path class="st0" d="M98,63.9c11.7,0,13.1,0,17.8,0.3c4.3,0.2,6.6,0.9,8.2,1.5c2.1,0.8,3.5,1.8,5.1,3.3c1.5,1.5,2.5,3,3.3,5.1
			c0.6,1.5,1.3,3.9,1.5,8.2c0.2,4.6,0.3,6,0.3,17.8s0,13.1-0.3,17.8c-0.2,4.3-0.9,6.6-1.5,8.2c-0.8,2.1-1.8,3.5-3.3,5.1
			c-1.5,1.5-3,2.5-5.1,3.3c-1.5,0.6-3.9,1.3-8.2,1.5c-4.6,0.2-6,0.3-17.8,0.3s-13.1,0-17.8-0.3c-4.3-0.2-6.6-0.9-8.2-1.5
			c-2.1-0.8-3.5-1.8-5.1-3.3c-1.5-1.5-2.5-3-3.3-5.1c-0.6-1.5-1.3-3.9-1.5-8.2c-0.2-4.6-0.3-6-0.3-17.8s0-13.1,0.3-17.8
			c0.2-4.3,0.9-6.6,1.5-8.2c0.8-2.1,1.8-3.5,3.3-5.1c1.5-1.5,3-2.5,5.1-3.3c1.5-0.6,3.9-1.3,8.2-1.5C84.8,64,86.2,63.9,98,63.9
			 M98,56c-11.9,0-13.4,0.1-18.1,0.3s-7.9,1-10.7,2c-2.9,1.1-5.3,2.6-7.8,5.1c-2.4,2.4-3.9,4.9-5.1,7.8c-1.1,2.8-1.8,6-2,10.7
			C54.1,86.5,54,88,54,100c0,11.9,0.1,13.4,0.3,18.1s1,7.9,2,10.7c1.1,2.9,2.6,5.3,5.1,7.8c2.4,2.4,4.9,3.9,7.8,5.1
			c2.8,1.1,6,1.8,10.7,2S86.1,144,98,144s13.4-0.1,18.1-0.3s7.9-1,10.7-2c2.9-1.1,5.3-2.6,7.8-5.1s3.9-4.9,5.1-7.8
			c1.1-2.8,1.8-6,2-10.7s0.3-6.2,0.3-18.1s-0.1-13.4-0.3-18.1s-1-7.9-2-10.7c-1.1-2.9-2.6-5.3-5.1-7.8c-2.4-2.4-4.9-3.9-7.8-5.1
			c-2.8-1.1-6-1.8-10.7-2C111.4,56.1,109.9,56,98,56L98,56z"/>
		<path class="st0" d="M98,77.4c-12.5,0-22.6,10.1-22.6,22.6s10.1,22.6,22.6,22.6s22.6-10.1,22.6-22.6S110.4,77.4,98,77.4z
			 M98,114.6c-8.1,0-14.7-6.6-14.7-14.7S89.9,85.3,98,85.3s14.7,6.6,14.7,14.7S106.1,114.6,98,114.6z"/>
		<circle class="st0" cx="121.4" cy="76.5" r="5.3"/>
	</g>
</g>
</svg>
